<svg xmlns="http://www.w3.org/2000/svg" xmlns:xlink="http://www.w3.org/1999/xlink" viewBox="0 0 137.96 99.38"><defs><style>.cls-1{fill:none;}.cls-2{font-size:11px;}.cls-2,.cls-5{fill:#1d1d1b;font-family:YuGothic-Regular, Yu Gothic;}.cls-3{clip-path:url(#clip-path);}.cls-4{fill:#010101;}.cls-5{font-size:36px;}</style><clipPath id="clip-path" transform="translate(0 -22.69)"><rect class="cls-1" x="34.47" width="105.69" height="105.69"/></clipPath></defs><g id="Calque_2" data-name="Calque 2"><g id="Calque_1-2" data-name="Calque 1"><text class="cls-2" transform="translate(2.51 56.82)">La baie</text><g class="cls-3"><path class="cls-4" d="M135.43,35.71l-4.22-1.05a4.3,4.3,0,0,0-1.54-2.7,27.86,27.86,0,0,0-10.44-5.34,5.69,5.69,0,0,0-10.88.17l-9,.13H80.6l-.42-.12a42.35,42.35,0,0,0-16.49-1.47c-18.18,2.05-27,10.45-27,25.69v4.92a1.1,1.1,0,0,0,1.1,1.1,1.13,1.13,0,0,0,.45-.09l3.39-1.53a21.91,21.91,0,0,0,2.79,8.08V81.83a4.4,4.4,0,0,0,1.71,3.5,4.68,4.68,0,0,0,2.86.92H60.9A1.1,1.1,0,0,0,62,85.17a5.89,5.89,0,0,0-5.48-5.89V72.82l27.53-5.19,0,10.53v3.66a4.43,4.43,0,0,0,1.71,3.51,4.7,4.7,0,0,0,2.87.91h11.93a1.1,1.1,0,0,0,1.1-1.07,5.89,5.89,0,0,0-5.48-5.89v-15l4.39-.93a15.56,15.56,0,0,0,3.31-1.12V80.37a1.1,1.1,0,0,0,1.1,1.1h.73A3.69,3.69,0,0,1,109.18,84h-5.33a1.1,1.1,0,0,0,0,2.2h6.59a1.11,1.11,0,0,0,1.11-1.07,5.89,5.89,0,0,0-5.49-5.89V61a15.38,15.38,0,0,0,2.59-2.24l1.82-2a23.38,23.38,0,0,1,16.44-7.51l.84,0A10.23,10.23,0,0,0,138,39,3.38,3.38,0,0,0,135.43,35.71ZM84.94,65.22l-29.73,5.6a1.08,1.08,0,0,0-.87.93c0,.06,0,1.21,0,1.25v7.37a1.09,1.09,0,0,0,1.09,1.1h.73A3.67,3.67,0,0,1,59.62,84a0,0,0,0,1,0,0H48.8a2.21,2.21,0,0,1-2.2-2.2h0V63.23a.22.22,0,0,0,0-.08,1.16,1.16,0,0,0-.15-.51,20.07,20.07,0,0,1-2.79-9,1.1,1.1,0,0,0-1.17-1,1.16,1.16,0,0,0-.45.12L38.9,54.23h0V51c0-14.11,8-21.58,25-23.5a40.07,40.07,0,0,1,15.63,1.4l.58.16a1,1,0,0,0,.3,0h19l9.87-.14a1.12,1.12,0,0,0,1.07-1,3.5,3.5,0,0,1,3.9-3l.25,0a4,4,0,0,1,2.76,2.84,1.09,1.09,0,0,0,.84.81,25.58,25.58,0,0,1,10.19,5.06,2.1,2.1,0,0,1,.77,1.63v.23a1.11,1.11,0,0,0,.83,1.07l5,1.26a1.1,1.1,0,0,1,.83,1.13,8,8,0,0,1-8,8l-.88,0a25.56,25.56,0,0,0-18,8.2l-1.83,2a13.21,13.21,0,0,1-6.94,4L94.82,62.3a1.1,1.1,0,0,0-.85,1s0,1.15,0,1.18V80.37a1.1,1.1,0,0,0,1.1,1.1h.73A3.68,3.68,0,0,1,99.26,84a0,0,0,0,1,0,0H88.44a2.2,2.2,0,0,1-2.2-2.2v0l0-3.66,0-11.86a1.1,1.1,0,0,0-1.1-1.1h0Z" transform="translate(0 -22.69)"/><path class="cls-4" d="M66.43,79.28V74.52a1.1,1.1,0,0,0-2.2,0v5.85a1.1,1.1,0,0,0,1.09,1.1h.73A3.69,3.69,0,0,1,69.54,84H64.22a1.1,1.1,0,0,0,0,2.2h6.59a1.09,1.09,0,0,0,1.1-1.07A5.89,5.89,0,0,0,66.43,79.28Z" transform="translate(0 -22.69)"/><path class="cls-4" d="M125.86,35.78a1.66,1.66,0,1,1-1.66-1.65A1.65,1.65,0,0,1,125.86,35.78Z" transform="translate(0 -22.69)"/></g><text class="cls-5" transform="translate(0 88.5)">Ourson</text></g></g></svg>